# File created by Blade
# Date/Time:  Thu Sep 25 15:41:58 2014
# Frame Rate: 120.000 fps
#------------------------------------------------------
:FULLY-SPECIFIED
:DEGREES
225
root 24.150464 32.753227 -0.352050 163.598354 -76.797785 -143.855304
Spine 2.614255 11.897521 3.436391
Head -3.199882 -4.940775 4.137537
LeftShoulder -3.617631 21.431563 12.738681
LeftArm 37.875618 32.568810 -59.568575
LeftForeArm 4.412033 0.000000 21.109865
LeftHand -27.463257 -0.000000 7.066273
LeftHandThumb1 -26.253704 0.000000 33.147579
RightShoulder -9.145144 15.322827 -23.031765
RightArm 5.602873 -43.336831 86.068748
RightForeArm -24.623861 -0.000000 20.816689
RightHand -3.454962 -0.000000 4.311684
RightHandThumb1 -24.326973 -0.000000 -32.862282
LeftUpLeg -47.415544 8.906085 7.684219
LeftLeg 39.905461 -0.000000 -0.000000
LeftFoot -6.479664 28.285839 -19.020429
LeftToeBase 3.696568 -0.000000 -0.000000
RightUpLeg -15.498481 -6.736674 11.977985
RightLeg 4.183128 -0.000000 -0.000000
RightFoot -11.510404 -5.291689 -4.635051
RightToeBase 0.895079 -0.000000 -0.000000
226
root 24.286126 32.755468 -0.407954 163.410281 -76.969953 -143.540537
Spine 2.804511 11.927363 3.470664
Head -3.569752 -5.035761 4.200573
LeftShoulder -3.358114 21.225363 12.851352
LeftArm 38.226078 32.512388 -59.420230
LeftForeArm 4.295127 0.000000 21.106430
LeftHand -27.230093 -0.000000 7.445462
LeftHandThumb1 -26.253704 0.000000 33.147579
RightShoulder -9.079040 15.377176 -23.027724
RightArm 5.704678 -43.421933 85.910490
RightForeArm -24.608978 0.000000 20.815954
RightHand -3.438319 0.000000 4.307378
RightHandThumb1 -24.326973 -0.000000 -32.862282
LeftUpLeg -48.563716 9.341605 7.117065
LeftLeg 40.439514 -0.000000 -0.000000
LeftFoot -5.790359 29.094565 -18.375355
LeftToeBase 4.755798 -0.000000 -0.000000
RightUpLeg -15.845941 -6.730799 12.162692
RightLeg 4.183649 -0.000000 -0.000000
RightFoot -11.378042 -5.458838 -4.839849
RightToeBase 0.852245 -0.000000 -0.000000
227
root 24.413739 32.755533 -0.466067 163.013753 -77.154546 -143.071267
Spine 3.063016 11.901461 3.563783
Head -3.938720 -5.113463 4.180503
LeftShoulder -3.164550 21.047666 12.914849
LeftArm 38.604669 32.426998 -59.256009
LeftForeArm 4.437826 -0.000000 21.195392
LeftHand -27.365230 -0.000000 7.562408
LeftHandThumb1 -26.253704 0.000000 33.147579
RightShoulder -8.987565 15.497937 -23.063710
RightArm 5.787786 -43.425891 85.814465
RightForeArm -24.696392 -0.000000 20.692618
RightHand -3.369899 -0.000000 4.218594
RightHandThumb1 -24.326973 -0.000000 -32.862282
LeftUpLeg -49.605514 9.731034 6.576341
LeftLeg 40.857410 -0.000000 -0.000000
LeftFoot -5.319202 29.981116 -18.167893
LeftToeBase 5.919837 -0.000000 -0.000000
RightUpLeg -16.141352 -6.894041 12.407810
RightLeg 4.182243 -0.000000 -0.000000
RightFoot -11.212427 -5.592503 -5.232455
RightToeBase 0.640773 -0.000000 -0.000000
228
root 24.536085 32.756412 -0.520613 162.834814 -77.307039 -142.830501
Spine 3.313526 11.901325 3.609448
Head -4.242562 -5.128381 4.172721
LeftShoulder -2.946984 20.917520 12.951190
LeftArm 38.894293 32.136187 -59.170169
LeftForeArm 3.972546 -0.000000 21.523103
LeftHand -28.357239 0.000000 7.259242
LeftHandThumb1 -26.253704 0.000000 33.147579
RightShoulder -8.846723 15.528035 -23.052579
RightArm 5.977707 -43.655336 85.603186
RightForeArm -24.543135 0.000000 20.648932
RightHand -3.322520 -0.000000 4.359372
RightHandThumb1 -24.326973 -0.000000 -32.862282
LeftUpLeg -50.516241 10.099519 6.013820
LeftLeg 41.011849 -0.000000 -0.000000
LeftFoot -5.204787 30.691701 -18.573206
LeftToeBase 6.921375 -0.000000 -0.000000
RightUpLeg -16.410790 -6.883852 12.566882
RightLeg 4.191582 -0.000000 -0.000000
RightFoot -11.084749 -5.778344 -5.491303
RightToeBase 0.572903 -0.000000 -0.000000
229
root 24.654767 32.757075 -0.575020 162.524187 -77.458739 -142.474215
Spine 3.591498 11.879301 3.696373
Head -4.543372 -5.133194 4.101581
LeftShoulder -2.724607 20.701407 12.992136
LeftArm 39.076928 31.995174 -59.112887
LeftForeArm 3.954852 -0.000000 21.675973
LeftHand -28.409229 -0.000000 7.394418
LeftHandThumb1 -26.253704 0.000000 33.147579
RightShoulder -8.737803 15.609135 -23.054615
RightArm 6.265122 -43.953955 85.386944
RightForeArm -24.348781 -0.000000 20.388050
RightHand -3.095121 -0.000000 4.933371
RightHandThumb1 -24.326973 -0.000000 -32.862282
LeftUpLeg -51.375827 10.477598 5.413659
LeftLeg 41.011561 -0.000000 -0.000000
LeftFoot -5.153459 31.190055 -18.950641
LeftToeBase 7.846001 -0.000000 -0.000000
RightUpLeg -16.661243 -6.892558 12.743615
RightLeg 4.212484 -0.000000 -0.000000
RightFoot -10.974364 -5.936947 -5.693098
RightToeBase 0.573374 -0.000000 -0.000000
230
root 24.780937 32.758526 -0.624010 162.558302 -77.543224 -142.400271
Spine 3.813121 11.940977 3.718822
Head -4.859550 -5.140718 4.107268
LeftShoulder -2.511270 20.431095 13.058759
LeftArm 39.257587 31.939839 -59.043376
LeftForeArm 4.165058 0.000000 21.713651
LeftHand -28.288191 -0.000000 7.500336
LeftHandThumb1 -26.253704 0.000000 33.147579
RightShoulder -8.578787 15.733197 -23.069076
RightArm 6.470212 -44.087873 85.244520
RightForeArm -24.262988 -0.000000 20.156192
RightHand -3.051555 -0.000000 5.067438
RightHandThumb1 -24.326973 -0.000000 -32.862282
LeftUpLeg -52.243112 10.902136 4.773192
LeftLeg 40.845661 -0.000000 -0.000000
LeftFoot -4.990591 31.280753 -19.464966
LeftToeBase 8.776505 -0.000000 -0.000000
RightUpLeg -17.022615 -6.727004 12.862578
RightLeg 4.319752 -0.000000 -0.000000
RightFoot -10.874764 -6.187584 -5.895011
RightToeBase 0.580272 -0.000000 -0.000000
231
root 24.896371 32.758629 -0.672722 162.623485 -77.612349 -142.348948
Spine 3.987939 12.033792 3.740486
Head -5.126825 -5.095424 4.054134
LeftShoulder -2.331857 20.295303 13.065370
LeftArm 39.574215 31.872818 -58.841295
LeftForeArm 4.182024 -0.000000 21.733543
LeftHand -28.142020 0.000000 7.938212
LeftHandThumb1 -26.253704 0.000000 33.147579
RightShoulder -8.467844 15.836997 -23.073963
RightArm 6.626953 -44.213283 85.144936
RightForeArm -24.198710 -0.000000 19.932573
RightHand -3.014381 0.000000 5.112901
RightHandThumb1 -24.326973 -0.000000 -32.862282
LeftUpLeg -53.027337 11.311623 4.131379
LeftLeg 40.463335 -0.000000 -0.000000
LeftFoot -4.609839 30.922555 -19.899433
LeftToeBase 9.719663 -0.000000 -0.000000
RightUpLeg -17.394379 -6.649060 12.998117
RightLeg 4.466352 -0.000000 -0.000000
RightFoot -10.810600 -6.309106 -6.068411
RightToeBase 0.510657 -0.000000 -0.000000
232
root 25.001719 32.759726 -0.722742 162.456764 -77.712613 -142.106785
Spine 4.199465 12.048889 3.807566
Head -5.360777 -5.051757 4.030375
LeftShoulder -2.225638 20.183220 13.023878
LeftArm 39.984048 31.841206 -58.550982
LeftForeArm 4.124600 0.000000 21.733628
LeftHand -28.067734 -0.000000 8.036858
LeftHandThumb1 -26.253704 0.000000 33.147579
RightShoulder -8.327758 15.903883 -23.050953
RightArm 6.891428 -44.405523 84.957327
RightForeArm -24.136191 0.000000 19.670153
RightHand -3.085640 -0.000000 5.139764
RightHandThumb1 -24.326973 -0.000000 -32.862282
LeftUpLeg -53.702372 11.632253 3.540150
LeftLeg 39.919316 -0.000000 -0.000000
LeftFoot -4.210571 30.274462 -20.539399
LeftToeBase 11.063693 -0.000000 -0.000000
RightUpLeg -17.698123 -6.709320 13.173726
RightLeg 4.581449 -0.000000 -0.000000
RightFoot -10.732068 -6.316202 -6.232699
RightToeBase 0.476143 -0.000000 -0.000000
233
root 25.102832 32.760923 -0.773169 162.325494 -77.792527 -141.896418
Spine 4.394309 12.069207 3.873183
Head -5.571470 -4.966760 3.977911
LeftShoulder -2.099202 19.971412 12.970759
LeftArm 40.164721 31.771860 -58.408743
LeftForeArm 4.143866 0.000000 21.779394
LeftHand -28.081949 -0.000000 8.037303
LeftHandThumb1 -26.253704 0.000000 33.147579
RightShoulder -8.171425 15.987653 -23.037130
RightArm 7.109718 -44.550321 84.841601
RightForeArm -24.031719 -0.000000 19.403488
RightHand -3.176923 -0.000000 5.092860
RightHandThumb1 -24.326973 -0.000000 -32.862282
LeftUpLeg -54.326992 11.928629 2.975906
LeftLeg 39.240320 -0.000000 -0.000000
LeftFoot -3.509726 29.356085 -21.253628
LeftToeBase 12.185300 -0.000000 -0.000000
RightUpLeg -17.966784 -6.679061 13.326213
RightLeg 4.636333 -0.000000 -0.000000
RightFoot -10.622183 -6.412815 -6.421975
RightToeBase 0.563057 -0.000000 -0.000000
234
root 25.198097 32.762571 -0.818412 162.208606 -77.888593 -141.713386
Spine 4.599040 12.079382 3.931963
Head -5.769149 -4.882023 3.940524
LeftShoulder -1.977849 19.849564 12.940671
LeftArm 40.502027 31.739679 -58.203730
LeftForeArm 4.216202 -0.000000 21.756028
LeftHand -28.064387 -0.000000 8.248422
LeftHandThumb1 -26.253704 0.000000 33.147579
RightShoulder -8.032925 16.151567 -22.997595
RightArm 7.220684 -44.712555 84.733470
RightForeArm -23.891135 -0.000000 19.178367
RightHand -3.173431 -0.000000 5.151002
RightHandThumb1 -24.326973 -0.000000 -32.862282
LeftUpLeg -54.863986 12.112642 2.451072
LeftLeg 38.450499 -0.000000 -0.000000
LeftFoot -2.534969 28.673421 -21.764443
LeftToeBase 12.401304 -0.000000 -0.000000
RightUpLeg -18.219206 -6.693689 13.460969
RightLeg 4.693333 -0.000000 -0.000000
RightFoot -10.519741 -6.471396 -6.539633
RightToeBase 0.503389 -0.000000 -0.000000
235
root 25.295310 32.763282 -0.864216 161.877994 -78.019122 -141.284062
Spine 4.783025 12.024241 4.048993
Head -6.011492 -4.797077 3.870341
LeftShoulder -1.839187 19.632722 12.904900
LeftArm 40.583618 31.696234 -58.171038
LeftForeArm 4.321042 -0.000000 21.853602
LeftHand -28.160579 -0.000000 8.498873
LeftHandThumb1 -26.253704 0.000000 33.147579
RightShoulder -7.875476 16.237219 -23.000243
RightArm 7.407850 -44.793943 84.611772
RightForeArm -23.784917 -0.000000 19.005479
RightHand -3.232246 -0.000000 5.198353
RightHandThumb1 -24.326973 -0.000000 -32.862282
LeftUpLeg -55.407463 12.187611 1.998437
LeftLeg 37.528414 -0.000000 -0.000000
LeftFoot -1.103007 27.758562 -21.740694
LeftToeBase 13.000832 -0.000000 -0.000000
RightUpLeg -18.502018 -6.731446 13.638157
RightLeg 4.733535 -0.000000 -0.000000
RightFoot -10.398826 -6.540861 -6.642965
RightToeBase 0.739903 -0.000000 -0.000000
236
root 25.381899 32.764335 -0.913853 161.464839 -78.115136 -140.792380
Spine 4.946818 12.011206 4.163896
Head -6.170767 -4.705557 3.852022
LeftShoulder -1.746459 19.530365 12.890546
LeftArm 40.846246 31.633554 -58.088244
LeftForeArm 4.384517 -0.000000 21.846215
LeftHand -28.132012 -0.000000 8.799161
LeftHandThumb1 -26.253704 0.000000 33.147579
RightShoulder -7.747113 16.314259 -22.965555
RightArm 7.604631 -45.027128 84.446036
RightForeArm -23.568152 0.000000 18.831904
RightHand -3.399083 -0.000000 4.918583
RightHandThumb1 -24.326973 -0.000000 -32.862282
LeftUpLeg -55.846911 12.295655 1.563690
LeftLeg 36.448073 -0.000000 -0.000000
LeftFoot 0.599588 26.746480 -21.314288
LeftToeBase 13.529366 -0.000000 -0.000000
RightUpLeg -18.685284 -6.765698 13.832307
RightLeg 4.650546 -0.000000 -0.000000
RightFoot -10.216732 -6.605064 -6.714186
RightToeBase 0.736206 -0.000000 -0.000000
